<?xml version="1.0" encoding="UTF-8" standalone="no"?> <svg xmlns="http://www.w3.org/2000/svg" viewBox="0 0 48 48"><title>Double Bed</title><g id="Double_Bed" data-name="Double Bed"><path d="M44,39H38v1a2,2,0,0,0,2,2h2a2,2,0,0,0,2-2Z"/><path d="M10,39H4v1a2,2,0,0,0,2,2H8a2,2,0,0,0,2-2Z"/><path d="M21,18.5V19H11v-.5A2.5,2.5,0,0,1,13.5,16h5A2.5,2.5,0,0,1,21,18.5Z"/><path d="M37,18.5V19H27v-.5A2.5,2.5,0,0,1,29.5,16h5A2.5,2.5,0,0,1,37,18.5Z"/><path d="M36,6H12a7.008,7.008,0,0,0-7,7v6.94A8.988,8.988,0,0,1,9,19v-.5A4.507,4.507,0,0,1,13.5,14h5A4.507,4.507,0,0,1,23,18.5V19h2v-.5A4.507,4.507,0,0,1,29.5,14h5A4.507,4.507,0,0,1,39,18.5V19a8.988,8.988,0,0,1,4,.94V13A7.008,7.008,0,0,0,36,6Z"/><path d="M46,30V28a7,7,0,0,0-7-7H9a7,7,0,0,0-7,7v2Z"/><path d="M2,32v3a2,2,0,0,0,2,2H44a2,2,0,0,0,2-2V32Z"/></g></svg>